<svg width="430" height="450" viewBox="0 0 430 450" fill="none" xmlns="http://www.w3.org/2000/svg">
<path fill-rule="evenodd" clip-rule="evenodd" d="M426.923 371.001C414.37 411.439 369.29 438.466 327.803 446.931C287.775 455.098 252.516 414.977 211.663 414.924C167.426 414.867 127.288 459.993 85.1219 446.616C43.7383 433.488 12.564 390.921 2.71068 348.638C-6.90951 307.355 19.9795 267.611 34.0937 227.64C44.733 197.511 61.8866 171.905 75.3506 142.927C91.2844 108.633 92.4583 66.1509 120.772 41.086C150.847 14.4627 194.376 -7.55039 233.038 3.33409C272.817 14.5329 279.957 70.5131 313.079 95.2255C343.032 117.574 397.38 105.349 414.376 138.633C431.371 171.912 388.125 208.814 390.139 246.127C392.519 290.208 440.011 328.841 426.923 371.001Z" fill="#94B3FD" fill-opacity="0.44"/>
</svg>
