<svg width="490" height="495" viewBox="0 0 490 495" fill="none" xmlns="http://www.w3.org/2000/svg">
<path fill-rule="evenodd" clip-rule="evenodd" d="M399.045 365.84C375.814 404.426 382.088 461.993 343.619 485.433C304.917 509.016 256.351 481.68 211.033 480.402C156.528 478.865 95.3725 509.566 51.49 477.193C7.42655 444.687 0.624825 379.979 0.717312 325.249C0.800289 276.145 24.6408 231.799 51.9736 191.012C76.3716 154.605 113.868 133.487 147.81 105.755C193.412 68.4973 225.845 4.97568 284.615 0.940458C344.797 -3.19169 400.986 39.2919 439.496 85.7279C476.005 129.75 495.972 189.363 487.801 245.941C480.516 296.392 425.335 322.171 399.045 365.84Z" fill="#83EAEB" fill-opacity="0.48"/>
</svg>
