<svg width="443" height="521" viewBox="0 0 443 521" fill="none" xmlns="http://www.w3.org/2000/svg">
<path fill-rule="evenodd" clip-rule="evenodd" d="M236.038 0.452975C286.14 4.65249 330.105 38.1905 361.323 77.5847C387.946 111.181 379.503 158.292 393.278 198.878C407.338 240.302 447.466 273.556 442.592 317.027C437.408 363.272 400.478 397.884 367.308 430.538C328.579 468.664 289.891 527.762 236.038 520.367C180.837 512.787 169.51 435.564 128.595 397.759C95.0118 366.728 41.219 360.495 19.4853 320.274C-3.99002 276.83 -4.59155 223.674 8.8543 176.163C22.6416 127.445 54.4354 86.2035 94.496 55.2197C135.512 23.4967 184.358 -3.87878 236.038 0.452975Z" fill="#83EAEB" fill-opacity="0.76"/>
</svg>
