<svg width="426" height="423" viewBox="0 0 426 423" fill="none" xmlns="http://www.w3.org/2000/svg">
<path fill-rule="evenodd" clip-rule="evenodd" d="M98.9447 378.223C62.0528 355.756 11.1419 339.13 2.20046 296.854C-6.80976 254.252 36.3644 220.08 57.4331 181.951C73.3244 153.192 89.4162 127.02 110.136 101.518C138.528 66.5727 157.372 18.2156 200.615 5.72179C246.809 -7.62469 301.915 3.99028 338.058 35.6667C373.22 66.4818 368.165 120.6 382.493 165.119C396.395 208.316 438.639 250.634 420.66 292.324C402.431 334.593 340.227 330.088 300.978 354.132C267.45 374.67 247.364 417.737 208.335 422.391C168.296 427.165 133.371 399.189 98.9447 378.223Z" fill="#B08BE0" fill-opacity="0.71"/>
</svg>
